<svg xmlns="http://www.w3.org/2000/svg" xml:space="preserve" width="1000px" height="230px" x="0px" y="0px" viewBox="0 385 1000 230"><path fill="#023F97" d="M671.441 454.184h-77.379l22.334-68.689H547.67l-74.399 229.012h143.016c33.072.001 62.383-21.293 72.604-52.746l18.707-57.451c6.584-20.046-4.329-41.634-24.375-48.218a38.135 38.135 0 0 0-11.782-1.908zm-31.957 48.15-15.476 47.612c-5.104 15.733-19.762 26.39-36.302 26.392h-33.321l27.289-83.986h50.557a7.613 7.613 0 0 1 7.253 9.982zM791.979 385.494l-14.902 45.817h68.726l14.865-45.817zM717.544 614.506h68.726l52.064-160.322h-68.689zM941.387 492.352h46.211l12.389-38.168h-46.212l22.333-68.689h-68.725l-58.169 179.03c-6.505 20.072 4.494 41.617 24.566 48.121a38.19 38.19 0 0 0 11.771 1.86h76.266l12.423-38.168h-49.694a7.578 7.578 0 0 1-7.182-9.946l24.023-74.04z"/><path fill="#0062DF" d="m196.179 465.422 75.153-79.928H190.83l-62.011 190.844H77.257a7.648 7.648 0 0 1-7.181-9.982l58.707-180.861H60.057L1.888 564.596c-6.504 20.031 4.461 41.542 24.491 48.046a38.125 38.125 0 0 0 11.775 1.864H185.12l52.064-160.322-41.005 11.238zM450.398 385.494H292.41l23.554 79.928-33.716-11.203-52.28 160.287h68.726l24.812-76.337h74.291c33.059-.015 62.351-21.307 72.567-52.747l16.266-50.018c6.484-20.058-4.519-41.575-24.576-48.06a38.197 38.197 0 0 0-11.656-1.85zm-31.885 48.114-12.998 40.036c-5.116 15.72-19.771 26.358-36.302 26.355h-33.321l24.812-76.338h50.593a7.576 7.576 0 0 1 7.216 9.947z"/></svg>